<svg width="25" height="25" viewBox="0 0 25 25" fill="none" xmlns="http://www.w3.org/2000/svg">
<path d="M9.93396 0C4.46281 0 0 4.46278 0 9.93394C0 15.4051 4.46281 19.8679 9.93396 19.8679C12.2104 19.8679 14.314 19.1014 15.9924 17.805L22.802 24.6246C23.3025 25.1251 24.124 25.1251 24.6246 24.6246C25.1251 24.1241 25.1251 23.3126 24.6246 22.812L17.795 15.9824C19.0883 14.3051 19.8679 12.2074 19.8679 9.93394C19.8679 4.46278 15.4051 0 9.93396 0ZM9.93396 2.56361C14.0196 2.56361 17.3043 5.84827 17.3043 9.93394C17.3043 14.0196 14.0196 17.3043 9.93396 17.3043C5.84829 17.3043 2.56359 14.0196 2.56359 9.93394C2.56359 5.84827 5.84829 2.56361 9.93396 2.56361Z" fill="white"/>
</svg>
